# Blender v2.78 (sub 0) OBJ File: '21.blend'
# www.blender.org
mtllib Potholder_01.mtl
g Potholder_01_Cube.027
v -3.140873 -0.212818 3.140873
v -3.140873 0.212818 3.140873
v -3.140873 -0.212818 -3.140873
v -3.140873 0.212818 -3.140873
v 3.179845 -0.204847 3.179791
v 3.140873 0.212818 3.140873
v 3.140873 -0.212818 -3.140873
v 3.140873 0.212818 -3.140873
v -3.963227 -0.146720 -3.963227
v -3.963227 -0.146720 3.963227
v -3.963227 0.188261 3.963227
v -3.963227 0.188261 -3.963227
v 3.963227 -0.146720 -3.963227
v 3.963227 0.188261 -3.963227
v 3.963227 -0.146720 3.963227
v 3.963227 0.188261 3.963227
v -3.140873 -0.150507 -1.570436
v -3.140873 -0.212818 0.000000
v -3.052825 -0.192048 1.570436
v -3.052825 0.212818 1.570436
v -3.140873 0.212818 0.000000
v -3.140873 0.212818 -1.570436
v 3.140873 -0.212818 1.570436
v 3.140873 -0.212818 0.000000
v 3.140873 -0.150507 -1.570436
v 3.140873 0.212818 -1.570436
v 3.140873 0.212818 0.000000
v 3.140873 0.212818 1.570436
v -3.900271 -0.115651 -1.553821
v -3.963227 -0.146720 0.000000
v -3.963227 -0.146720 1.981614
v -3.963227 0.188261 1.981614
v -3.963227 0.188261 0.000000
v -3.900271 0.219329 -1.553821
v 3.963227 -0.146720 1.981614
v 3.963227 -0.186793 0.000000
v 3.908284 -0.146720 -1.706819
v 3.908284 0.188261 -1.706819
v 3.963227 0.148188 0.000000
v 3.963227 0.188261 1.981614
v 1.570436 -0.212818 -3.038002
v 0.000000 -0.212818 -3.140873
v -1.570436 -0.212818 -3.140873
v -1.570436 0.212818 -3.140873
v 0.000000 0.212818 -3.140873
v 1.570436 0.212818 -3.038002
v -1.570436 -0.212818 3.140873
v 0.000000 -0.212818 3.140873
v 1.570436 -0.212818 2.896046
v 1.570436 0.212818 2.896046
v 0.000000 0.212818 3.140873
v -1.570436 0.212818 3.140873
v 1.981614 -0.105934 -3.963227
v 0.000000 -0.146720 -3.871966
v -1.981614 -0.146720 -3.963227
v -1.981614 0.188261 -3.963227
v 0.000000 0.188261 -3.871966
v 1.981614 0.229047 -3.963227
v -1.981614 -0.219416 3.963227
v 0.000000 -0.146720 3.963227
v 1.981614 -0.146720 3.768239
v 1.981614 0.188261 3.768239
v 0.000000 0.188261 3.963227
v -1.981614 0.115565 3.963227
v -1.570436 0.212818 -1.570436
v 0.000000 0.212818 -1.570436
v 1.570436 0.212818 -1.570436
v -1.570436 0.212818 0.000000
v 0.000000 0.212818 0.000000
v 1.570436 0.212818 0.000000
v -1.570436 0.212818 1.570436
v 0.000000 0.212818 1.570436
v 1.570436 0.212818 1.570436
v 1.570436 -0.150507 -1.570436
v 0.000000 -0.212818 -1.570436
v -1.570436 -0.150507 -1.570436
v 1.570436 -0.212818 0.000000
v 0.000000 -0.160892 0.000000
v -1.570436 -0.160892 0.000000
v 1.570436 -0.212818 1.570436
v 0.000000 -0.212818 1.570436
v -1.570436 -0.192048 1.570436
v -4.087468 0.020852 4.087468
v -4.087468 0.020852 -4.087468
v 3.979303 0.020852 -3.964344
v 4.087468 0.020852 4.087468
v 4.032525 0.020852 -1.706819
v 4.087468 -0.019221 0.000000
v 4.087468 0.020852 2.043734
v -4.087468 0.020852 2.043734
v -4.087468 0.020852 0.000000
v -4.024511 0.052895 -1.553821
v 2.043734 0.020852 3.892479
v 0.000000 0.020852 4.087468
v -2.043734 -0.054123 4.087468
v -2.043734 0.020852 -4.087468
v 0.000000 0.020852 -3.996207
v 2.043734 0.061638 -4.087468
v 3.793254 -0.198292 -4.110569
v 3.793254 0.250643 -4.110569
v 4.621482 -0.198292 -5.004440
v 4.621482 0.250643 -5.004440
v 4.071029 -0.198292 -3.853193
v 4.071029 0.250643 -3.853193
v 4.899257 -0.198292 -4.747064
v 4.899257 0.250643 -4.747064
v 4.502441 -0.085147 -4.875965
v 3.911894 -0.085147 -4.238613
v 3.911894 0.137498 -4.238613
v 4.502441 0.137498 -4.875965
v 4.780217 0.137498 -4.618589
v 4.780217 -0.085147 -4.618589
v 4.189669 -0.085147 -3.981236
v 4.189669 0.137498 -3.981236
v 4.693397 0.026175 -5.082055
v 4.971172 0.026175 -4.824678
v 4.566591 0.026175 -4.945199
v 4.844367 0.026175 -4.687823
v 3.720194 0.026175 -4.031718
v 3.997969 0.026175 -3.774342
v 3.846723 0.026175 -4.168276
v 4.124498 0.026175 -3.910900
v 4.048325 0.224217 -4.385856
v 4.326099 0.224217 -4.128479
v 4.093766 0.117523 -4.434899
v 4.371541 0.117523 -4.177522
v 4.349301 -0.171866 -4.710686
v 4.627076 -0.171866 -4.453310
v 4.308369 -0.065172 -4.666511
v 4.586144 -0.065172 -4.409135
v -3.845665 0.251862 3.847071
v -3.257303 0.269432 3.258709
v -3.248346 0.273852 -1.628095
v -3.257303 0.269432 -3.257029
v -3.845665 0.251862 -3.845391
v 1.629501 0.275235 -3.168793
v 3.258435 0.269432 -3.257029
v 3.258435 0.269432 1.629774
v 3.258435 0.269432 3.258709
v -1.628368 0.259090 3.258709
v -3.791665 0.278511 -1.553821
v 1.923682 0.286846 -3.830756
v 3.846797 0.251862 -3.845391
v 3.846797 0.251862 1.923955
v 3.846797 0.251862 3.847071
v -1.922549 0.189509 3.847071
v -3.181781 0.269432 1.629774
v -3.257303 0.269432 0.000840
v 3.250619 0.269432 -1.628095
v 3.258435 0.263731 0.000840
v -3.833138 0.251862 1.923955
v -3.845665 0.251862 0.000840
v 3.799672 0.251862 -1.706819
v 3.846797 0.217491 0.000840
v -1.628368 0.269432 -3.257029
v 0.000567 0.269432 -3.244045
v 1.629501 0.269432 3.020972
v 0.000567 0.269432 3.258709
v -1.922549 0.251862 -3.845391
v 0.000567 0.251862 -3.767114
v 1.923682 0.251862 3.644992
v 0.000567 0.251862 3.847071
v -3.139575 -0.248638 1.608732
v -3.219267 -0.267437 3.218190
v -1.609808 -0.267437 -3.219642
v -3.219267 -0.267437 -3.219642
v 3.884833 -0.213885 -3.885910
v 3.218566 -0.267437 -3.219642
v 3.213351 -0.211040 -1.610184
v -3.885534 -0.213885 -3.885910
v 1.609108 -0.267437 2.978093
v 3.179561 -0.266937 3.179203
v -3.877178 -0.211914 1.941866
v -3.885534 -0.213885 3.884458
v -1.942942 -0.213885 -3.885910
v 3.835105 -0.207972 -1.706819
v 1.942242 -0.213885 3.684740
v 3.845828 -0.213385 3.845471
v -3.213292 -0.208091 -1.610184
v -3.219267 -0.267437 -0.000726
v 3.218566 -0.267437 1.608732
v 3.218566 -0.271240 -0.000726
v -3.828552 -0.179851 -1.553821
v -3.885534 -0.213885 -0.000726
v 3.884833 -0.213885 1.941866
v 3.884833 -0.250155 -0.000726
v 1.609108 -0.263566 -3.126534
v -0.000350 -0.267437 -3.210981
v -1.609808 -0.274336 3.218190
v -0.000350 -0.267437 3.218190
v 1.942242 -0.176969 -3.876147
v -0.000350 -0.213885 -3.803310
v -1.942942 -0.279682 3.884458
v -0.000350 -0.213885 3.884458
v -1.720256 0.255724 1.720256
v -2.911170 0.255724 1.720256
v -2.982418 0.255724 2.991053
v -1.720256 0.255724 2.991053
v -1.720256 0.255724 -2.991053
v -2.991053 0.255724 -2.991053
v -2.991053 0.255724 -1.720256
v -1.720256 0.255724 -1.720256
v -1.720256 0.255724 -1.420617
v -2.991053 0.255724 -1.420617
v -2.991053 0.255724 -0.149820
v -1.720256 0.255724 -0.149820
v -1.720256 0.255724 0.149820
v -2.982418 0.255724 0.149820
v -2.911170 0.255724 1.420617
v -1.720256 0.255724 1.420617
v 2.991053 0.255724 0.149820
v 1.720256 0.255724 0.149820
v 1.720256 0.255724 1.420617
v 2.991053 0.255724 1.420617
v 1.420617 0.255724 0.149820
v 0.149820 0.255724 0.149820
v 0.149820 0.255724 1.420617
v 1.420617 0.255724 1.420617
v -0.149820 0.255724 0.149820
v -1.420617 0.255724 0.149820
v -1.420617 0.255724 1.420617
v -0.149820 0.255724 1.420617
v 2.991053 0.255724 -1.420617
v 1.720256 0.255724 -1.420617
v 1.720256 0.255724 -0.149820
v 2.991053 0.255724 -0.149820
v 1.420617 0.255724 -1.420617
v 0.149820 0.255724 -1.420617
v 0.149820 0.255724 -0.149820
v 1.420617 0.255724 -0.149820
v -0.149820 0.255724 -1.420617
v -1.420617 0.255724 -1.420617
v -1.420617 0.255724 -0.149820
v -0.149820 0.255724 -0.149820
v 2.991053 0.255724 -2.980918
v 1.720256 0.255724 -2.897675
v 1.720256 0.255724 -1.720256
v 2.991053 0.255724 -1.720256
v 1.420617 0.255724 -2.897675
v 0.149820 0.255724 -2.980918
v 0.149820 0.255724 -1.720256
v 1.420617 0.255724 -1.720256
v -0.149820 0.255724 -2.991053
v -1.420617 0.255724 -2.991053
v -1.420617 0.255724 -1.720256
v -0.149820 0.255724 -1.720256
v 2.991053 0.255724 1.720256
v 1.720256 0.255724 1.720256
v 1.720256 0.255724 2.767773
v 2.991053 0.255724 2.965887
v 1.420617 0.255724 1.720256
v 0.149820 0.255724 1.720256
v 0.149820 0.255724 2.965887
v 1.420617 0.255724 2.767773
v -0.149820 0.255724 1.720256
v -1.420617 0.255724 1.720256
v -1.420617 0.255724 2.991053
v -0.149820 0.255724 2.991053
v -3.140299 -0.410316 1.611622
v -3.219991 -0.429115 3.221080
v 1.608383 -0.429115 2.980983
v 3.178836 -0.428615 3.182093
v -3.727308 -0.373592 1.944756
v -3.666536 -0.342943 3.716753
v 1.831324 -0.342943 3.517035
v 3.627146 -0.342442 3.677766
v -3.214017 -0.369769 -1.607294
v -3.219991 -0.429115 0.002164
v 3.217841 -0.429115 1.611622
v 3.217841 -0.432918 0.002164
v 3.212627 -0.372717 -1.607294
v -3.680572 -0.341529 -1.518974
v -3.735339 -0.375563 0.002164
v 3.733023 -0.375563 1.944756
v 3.733023 -0.411833 0.002164
v 3.685227 -0.369649 -1.662267
v -1.610533 -0.436014 3.221080
v -0.001075 -0.429115 3.221080
v -1.833916 -0.408739 3.716753
v -0.001296 -0.342943 3.716753
v -1.610533 -0.430065 0.002164
v -0.001075 -0.431016 0.002164
v 1.608383 -0.431967 0.002164
v -1.607356 -0.370506 -1.607294
v -0.000695 -0.371243 -1.607294
v 1.605966 -0.371980 -1.607294
v -1.550764 -0.415015 1.611622
v 0.038771 -0.419715 1.611622
v 1.628306 -0.424415 1.611622
vn 0.0023 -1.0000 0.0027
vn 0.0000 1.0000 0.0000
vn 0.0013 -0.9992 0.0410
vn 0.0000 -0.9992 -0.0396
vn 0.0000 -1.0000 0.0000
vn 0.0170 -0.9998 -0.0038
vn -0.0066 -0.9996 -0.0264
vn -0.0165 -0.9997 -0.0165
vn 0.0165 -0.9996 -0.0231
vn -0.0198 -0.9997 0.0132
vn 0.0033 -1.0000 -0.0033
vn 0.0000 -0.9992 0.0396
vn -0.0198 -0.9996 0.0198
vn 0.0192 -0.9996 0.0205
vn 0.0000 -0.9999 -0.0132
vn -0.0066 -1.0000 -0.0066
vn 0.0000 0.9614 -0.2753
vn -0.2749 0.9614 -0.0154
vn 0.0000 0.9614 0.2753
vn 0.2753 0.9614 0.0000
vn -0.2753 0.9614 0.0000
vn -0.2749 0.9614 0.0154
vn -0.0180 0.9614 -0.2747
vn 0.0180 0.9614 -0.2747
vn -0.0424 0.9614 0.2720
vn 0.0424 0.9614 0.2720
vn -0.0131 -0.7462 -0.6655
vn 0.0294 0.8502 0.5257
vn 0.4966 0.8679 0.0115
vn -0.5884 -0.8085 0.0010
vn -0.8044 0.5939 0.0129
vn 0.0368 0.3579 -0.9330
vn 0.8030 0.5960 0.0000
vn 0.0215 0.5855 0.8104
vn 0.6347 -0.7718 -0.0381
vn -0.4339 0.9010 0.0000
vn -0.0167 -0.7594 -0.6504
vn 0.4794 0.8776 0.0000
vn -0.0030 0.9162 -0.4007
vn 0.4646 0.8855 0.0025
vn -0.0617 0.9103 -0.4094
vn -0.8336 -0.5524 0.0015
vn -0.5937 -0.8042 0.0290
vn 0.6374 -0.7703 0.0150
vn 0.9223 0.3865 0.0004
vn 0.8030 0.5959 -0.0119
vn 0.8040 0.5945 -0.0118
vn -0.8030 0.5960 0.0000
vn -0.8020 0.5969 -0.0204
vn 0.4146 0.9098 -0.0212
vn -0.0299 0.8634 0.5036
vn 0.0285 0.8923 0.4505
vn 0.5611 -0.8277 0.0057
vn 0.6512 -0.7587 0.0164
vn 0.0000 -0.8218 0.5698
vn -0.0838 -0.8312 -0.5496
vn 0.5555 -0.8313 -0.0190
vn 0.0000 -0.7549 -0.6558
vn -0.4771 0.8788 -0.0016
vn 0.0698 0.8836 -0.4629
vn 0.4320 0.9016 0.0221
vn -0.0796 0.5651 0.8212
vn 0.0769 0.6033 0.7938
vn -0.0219 0.5958 0.8028
vn 0.0000 0.5960 -0.8030
vn 0.0365 0.5912 -0.8057
vn -0.0485 0.5894 -0.8064
vn 0.0017 -0.7998 -0.6002
vn 0.6017 -0.7982 -0.0294
vn 0.0631 -0.7763 0.6272
vn 0.0468 0.8867 0.4599
vn -0.4566 0.8897 0.0015
vn 0.0159 0.9040 -0.4273
vn -0.0245 -0.5925 -0.8052
vn 0.0365 -0.5908 -0.8060
vn 0.0000 -0.5956 -0.8033
vn 0.0218 -0.5954 0.8031
vn 0.0769 -0.6030 0.7940
vn -0.0796 -0.5648 0.8214
vn -0.8033 -0.5939 -0.0446
vn -0.8033 -0.5956 0.0000
vn 0.8022 -0.5970 0.0119
vn 0.8027 -0.5951 -0.0398
vn 0.9224 -0.3862 0.0004
vn -0.0222 -0.6060 0.7951
vn 0.8033 -0.5956 0.0000
vn 0.0220 -0.3547 -0.9347
vn -0.8087 -0.5875 0.0281
vn -0.7335 0.0000 -0.6797
vn 0.6148 0.4264 -0.6635
vn -0.6130 0.4319 0.6616
vn 0.0219 -0.9995 -0.0237
vn 0.0477 0.9975 -0.0515
vn 0.7335 0.0000 0.6797
vn 0.0226 -0.9994 -0.0244
vn -0.5184 -0.6467 0.5595
vn -0.0233 0.9994 0.0251
vn 0.5150 -0.6526 -0.5558
vn -0.5184 0.6467 0.5595
vn 0.6148 -0.4264 -0.6635
vn 0.5150 0.6526 -0.5558
vn -0.6130 -0.4319 0.6616
vn -0.0506 -0.9972 0.0546
vn -0.0213 0.9995 0.0230
vn 0.0474 0.9976 -0.0512
vn -0.0448 -0.9978 0.0483
vn 0.0204 0.9958 0.0890
vn -0.0079 0.9999 -0.0078
vn 0.0116 0.9999 0.0034
vn 0.0298 0.9996 0.0000
vn 0.0311 0.9995 0.0005
vn 0.0568 0.9983 0.0111
vn 0.0570 0.9983 -0.0113
vn -0.0288 0.9996 -0.0007
vn -0.0282 0.9996 0.0007
vn -0.0108 0.9999 0.0095
vn 0.0000 0.9996 -0.0298
vn 0.0008 0.9995 -0.0318
vn -0.0115 0.9999 -0.0079
vn -0.0039 0.9995 0.0318
vn 0.0035 0.9996 0.0281
vn -0.0204 0.9974 0.0688
vn 0.5085 0.8610 0.0036
vn -0.4465 0.8948 -0.0011
vn 0.0000 0.8800 -0.4750
vn 0.4987 0.8666 -0.0165
vn 0.0030 0.9173 -0.3983
vn -0.4271 0.9042 0.0027
vn 0.0217 0.8656 -0.5003
vn 0.0000 0.8989 0.4381
vn -0.4155 0.9096 -0.0016
vn -0.0355 0.8862 -0.4619
vn -0.0019 0.8884 0.4591
vn -0.0266 0.8937 0.4479
vn -0.4775 0.8786 0.0011
vn 0.4667 0.8844 -0.0025
vn -0.4577 0.8891 -0.0015
vn -0.0505 0.8662 0.4971
vn 0.0000 -0.9968 -0.0801
vn 0.0541 -0.9984 0.0172
vn -0.7330 -0.6802 0.0038
vn -0.1395 -0.1772 -0.9742
vn -0.0754 -0.9968 0.0248
vn -0.7321 -0.6799 -0.0417
vn 0.0630 -0.8010 0.5954
vn -0.1363 -0.0814 -0.9873
vn 0.0275 -0.7879 0.6152
vn -0.0146 -0.9940 -0.1087
vn 0.0118 -0.9948 -0.1010
vn 0.0022 -0.9963 -0.0854
vn -0.0531 -0.8120 0.5813
vn 0.0328 -0.8353 0.5489
vn -0.6255 -0.7797 -0.0290
vn 0.0302 -0.7316 -0.6811
vn -0.0312 -0.8361 0.5478
vn 0.1284 -0.5389 -0.8326
vn -0.0016 -0.8060 0.5919
vn -0.6294 -0.7771 -0.0017
vn -0.6679 -0.7437 0.0271
vn 0.5679 -0.8228 0.0197
vn -0.0278 -0.7871 0.6162
vn -0.6598 -0.7503 -0.0412
vn 0.0273 -0.7739 0.6327
vn 0.5814 -0.8131 0.0300
vn -0.0017 -0.7990 -0.6014
vn -0.6284 -0.7779 0.0017
vn -0.1158 -0.9933 0.0028
vn -0.0187 -0.9841 0.1765
vn 0.1302 -0.9914 0.0158
vn 0.0686 -0.9976 0.0113
vn 0.0227 -0.9992 -0.0316
vn -0.0858 -0.9958 -0.0314
vn -0.0793 -0.9968 0.0078
vn -0.0210 -0.9948 0.0996
vn 0.0210 -0.9928 0.1183
vn 0.0205 -0.9868 0.1604
vn -0.6149 -0.7885 0.0148
vn 0.6083 -0.7931 0.0316
vn 0.7291 -0.6843 0.0128
vn 0.7278 -0.6847 -0.0382
vn -0.0556 -0.7641 0.6427
vn -0.0281 -0.8053 0.5922
vn -0.0005 -0.9993 -0.0373
vn -0.0018 -1.0000 0.0035
vn -0.0018 -0.9999 0.0106
vn -0.0018 -1.0000 0.0082
vn -0.0018 -1.0000 0.0059
vn -0.0005 -0.9993 -0.0369
vn -0.0005 -0.9993 -0.0370
vn -0.0005 -0.9993 -0.0372
vn -0.0036 -0.9999 -0.0125
vn 0.0007 -1.0000 -0.0094
vn -0.0018 -1.0000 -0.0048
vn -0.0012 -1.0000 -0.0015
vn -0.0000 -0.0179 -0.9998
usemtl FFFFFF
s off
f 80//1 23//1 5//1 49//1
f 195//2 196//2 197//2 198//2
f 199//2 200//2 201//2 202//2
f 203//2 204//2 205//2 206//2
f 207//2 208//2 209//2 210//2
f 41//3 7//3 25//3 74//3
f 74//4 25//4 24//4 77//4
f 77//5 24//5 23//5 80//5
f 18//6 79//6 82//6 19//6
f 79//7 78//7 81//7 82//7
f 78//8 77//8 80//8 81//8
f 17//9 76//9 79//9 18//9
f 76//10 75//10 78//10 79//10
f 75//11 74//11 77//11 78//11
f 3//12 43//12 76//12 17//12
f 43//13 42//13 75//13 76//13
f 42//14 41//14 74//14 75//14
f 211//2 212//2 213//2 214//2
f 215//2 216//2 217//2 218//2
f 219//2 220//2 221//2 222//2
f 223//2 224//2 225//2 226//2
f 227//2 228//2 229//2 230//2
f 231//2 232//2 233//2 234//2
f 235//2 236//2 237//2 238//2
f 239//2 240//2 241//2 242//2
f 243//2 244//2 245//2 246//2
f 247//2 248//2 249//2 250//2
f 251//2 252//2 253//2 254//2
f 255//2 256//2 257//2 258//2
f 19//15 82//15 47//15 1//15
f 82//16 81//16 48//16 47//16
f 81//5 80//5 49//5 48//5
f 71//17 20//17 196//17 195//17
f 20//18 2//18 197//18 196//18
f 2//19 52//19 198//19 197//19
f 52//20 71//20 195//20 198//20
f 44//17 4//17 200//17 199//17
f 4//21 22//21 201//21 200//21
f 22//19 65//19 202//19 201//19
f 65//20 44//20 199//20 202//20
f 65//17 22//17 204//17 203//17
f 22//21 21//21 205//21 204//21
f 21//19 68//19 206//19 205//19
f 68//20 65//20 203//20 206//20
f 68//17 21//17 208//17 207//17
f 21//22 20//22 209//22 208//22
f 20//19 71//19 210//19 209//19
f 71//20 68//20 207//20 210//20
f 27//17 70//17 212//17 211//17
f 70//21 73//21 213//21 212//21
f 73//19 28//19 214//19 213//19
f 28//20 27//20 211//20 214//20
f 70//17 69//17 216//17 215//17
f 69//21 72//21 217//21 216//21
f 72//19 73//19 218//19 217//19
f 73//20 70//20 215//20 218//20
f 69//17 68//17 220//17 219//17
f 68//21 71//21 221//21 220//21
f 71//19 72//19 222//19 221//19
f 72//20 69//20 219//20 222//20
f 26//17 67//17 224//17 223//17
f 67//21 70//21 225//21 224//21
f 70//19 27//19 226//19 225//19
f 27//20 26//20 223//20 226//20
f 67//17 66//17 228//17 227//17
f 66//21 69//21 229//21 228//21
f 69//19 70//19 230//19 229//19
f 70//20 67//20 227//20 230//20
f 66//17 65//17 232//17 231//17
f 65//21 68//21 233//21 232//21
f 68//19 69//19 234//19 233//19
f 69//20 66//20 231//20 234//20
f 8//23 46//23 236//23 235//23
f 46//21 67//21 237//21 236//21
f 67//19 26//19 238//19 237//19
f 26//20 8//20 235//20 238//20
f 46//24 45//24 240//24 239//24
f 45//21 66//21 241//21 240//21
f 66//19 67//19 242//19 241//19
f 67//20 46//20 239//20 242//20
f 45//17 44//17 244//17 243//17
f 44//21 65//21 245//21 244//21
f 65//19 66//19 246//19 245//19
f 66//20 45//20 243//20 246//20
f 28//17 73//17 248//17 247//17
f 73//21 50//21 249//21 248//21
f 50//25 6//25 250//25 249//25
f 6//20 28//20 247//20 250//20
f 73//17 72//17 252//17 251//17
f 72//21 51//21 253//21 252//21
f 51//26 50//26 254//26 253//26
f 50//20 73//20 251//20 254//20
f 72//17 71//17 256//17 255//17
f 71//21 52//21 257//21 256//21
f 52//19 51//19 258//19 257//19
f 51//20 72//20 255//20 258//20
usemtl F44336
f 54//27 53//27 191//27 192//27
f 11//28 64//28 146//28 131//28
f 38//29 14//29 143//29 153//29
f 23//30 24//30 182//30 181//30
f 92//31 34//31 12//31 84//31
f 98//32 58//32 14//32 85//32
f 89//33 40//33 16//33 86//33
f 95//34 64//34 11//34 83//34
f 37//35 36//35 186//35 176//35
f 28//36 6//36 139//36 138//36
f 53//37 13//37 167//37 191//37
f 16//38 40//38 144//38 145//38
f 51//39 52//39 140//39 158//39
f 21//40 22//40 133//40 148//40
f 50//41 51//41 158//41 157//41
f 5//42 23//42 181//42 172//42
f 25//43 7//43 168//43 169//43
f 36//44 35//44 185//44 186//44
f 85//45 14//45 38//45 87//45
f 87//46 38//46 39//46 88//46
f 88//47 39//47 40//47 89//47
f 83//48 11//48 32//48 90//48
f 90//48 32//48 33//48 91//48
f 91//49 33//49 34//49 92//49
f 20//50 21//50 148//50 147//50
f 64//51 63//51 162//51 146//51
f 46//52 8//52 137//52 136//52
f 35//53 15//53 178//53 185//53
f 13//54 37//54 176//54 167//54
f 43//55 3//55 166//55 165//55
f 48//56 49//56 171//56 190//56
f 18//57 19//57 163//57 180//57
f 9//58 55//58 175//58 170//58
f 34//59 33//59 152//59 141//59
f 6//60 50//60 157//60 139//60
f 2//61 20//61 147//61 132//61
f 86//62 16//62 62//62 93//62
f 93//63 62//63 63//63 94//63
f 94//64 63//64 64//64 95//64
f 84//65 12//65 56//65 96//65
f 96//66 56//66 57//66 97//66
f 97//67 57//67 58//67 98//67
f 47//68 48//68 190//68 189//68
f 17//69 18//69 180//69 179//69
f 61//70 60//70 194//70 177//70
f 63//71 62//71 161//71 162//71
f 33//72 32//72 151//72 152//72
f 14//73 58//73 142//73 143//73
f 54//74 97//74 98//74 53//74
f 55//75 96//75 97//75 54//75
f 9//76 84//76 96//76 55//76
f 60//77 94//77 95//77 59//77
f 61//78 93//78 94//78 60//78
f 15//79 86//79 93//79 61//79
f 30//80 91//80 92//80 29//80
f 31//81 90//81 91//81 30//81
f 10//81 83//81 90//81 31//81
f 36//82 88//82 89//82 35//82
f 37//83 87//83 88//83 36//83
f 13//84 85//84 87//84 37//84
f 59//85 95//85 83//85 10//85
f 35//86 89//86 86//86 15//86
f 53//87 98//87 85//87 13//87
f 29//88 92//88 84//88 9//88
f 119//89 100//89 109//89 121//89
f 115//90 102//90 106//90 116//90
f 115//89 101//89 107//89 117//89
f 120//91 104//91 100//91 119//91
f 127//92 128//92 103//92 99//92
f 124//93 123//93 100//93 104//93
f 124//94 104//94 114//94 126//94
f 116//94 106//94 111//94 118//94
f 123//89 102//89 110//89 125//89
f 127//89 99//89 108//89 129//89
f 120//94 103//94 113//94 122//94
f 128//94 105//94 112//94 130//94
f 125//95 110//95 111//95 126//95
f 117//96 118//96 111//96 110//96
f 129//97 108//97 113//97 130//97
f 121//98 109//98 114//98 122//98
f 107//99 112//99 118//99 117//99
f 105//94 116//94 118//94 112//94
f 102//89 115//89 117//89 110//89
f 101//100 115//100 116//100 105//100
f 108//101 121//101 122//101 113//101
f 104//94 120//94 122//94 114//94
f 103//102 120//102 119//102 99//102
f 99//89 119//89 121//89 108//89
f 109//103 125//103 126//103 114//103
f 100//89 123//89 125//89 109//89
f 106//94 124//94 126//94 111//94
f 106//104 102//104 123//104 124//104
f 107//105 129//105 130//105 112//105
f 103//94 128//94 130//94 113//94
f 101//89 127//89 129//89 107//89
f 101//106 105//106 128//106 127//106
f 140//107 132//107 131//107 146//107
f 133//108 134//108 135//108 141//108
f 136//109 137//109 143//109 142//109
f 138//110 139//110 145//110 144//110
f 137//111 149//111 153//111 143//111
f 149//112 150//112 154//112 153//112
f 150//113 138//113 144//113 154//113
f 132//114 147//114 151//114 131//114
f 147//115 148//115 152//115 151//115
f 148//116 133//116 141//116 152//116
f 134//117 155//117 159//117 135//117
f 155//118 156//118 160//118 159//118
f 156//119 136//119 142//119 160//119
f 139//120 157//120 161//120 145//120
f 157//121 158//121 162//121 161//121
f 158//122 140//122 146//122 162//122
f 39//123 38//123 153//123 154//123
f 8//124 26//124 149//124 137//124
f 56//125 12//125 135//125 159//125
f 40//126 39//126 154//126 144//126
f 52//127 2//127 132//127 140//127
f 26//128 27//128 150//128 149//128
f 57//129 56//129 159//129 160//129
f 4//130 44//130 155//130 134//130
f 27//131 28//131 138//131 150//131
f 58//132 57//132 160//132 142//132
f 44//133 45//133 156//133 155//133
f 45//134 46//134 136//134 156//134
f 12//135 34//135 141//135 135//135
f 22//136 4//136 134//136 133//136
f 32//137 11//137 131//137 151//137
f 62//138 16//138 145//138 161//138
f 165//139 166//139 170//139 175//139
f 169//140 168//140 167//140 176//140
f 173//141 184//141 273//141 263//141
f 183//142 179//142 267//142 272//142
f 166//143 179//143 183//143 170//143
f 184//144 183//144 272//144 273//144
f 177//145 194//145 280//145 265//145
f 169//146 176//146 276//146 271//146
f 194//147 193//147 279//147 280//147
f 168//148 187//148 191//148 167//148
f 187//149 188//149 192//149 191//149
f 188//150 165//150 175//150 192//150
f 15//151 61//151 177//151 178//151
f 7//152 41//152 187//152 168//152
f 24//153 25//153 169//153 182//153
f 55//154 54//154 192//154 175//154
f 41//155 42//155 188//155 187//155
f 49//156 5//156 172//156 171//156
f 42//157 43//157 165//157 188//157
f 10//158 31//158 173//158 174//158
f 29//159 9//159 170//159 183//159
f 19//160 1//160 164//160 163//160
f 59//161 10//161 174//161 193//161
f 30//162 29//162 183//162 184//162
f 60//163 59//163 193//163 194//163
f 3//164 17//164 179//164 166//164
f 1//165 47//165 189//165 164//165
f 31//166 30//166 184//166 173//166
f 259//167 260//167 264//167 263//167
f 261//168 262//168 266//168 265//168
f 262//169 269//169 274//169 266//169
f 269//170 270//170 275//170 274//170
f 270//171 271//171 276//171 275//171
f 267//172 268//172 273//172 272//172
f 268//173 259//173 263//173 273//173
f 260//174 277//174 279//174 264//174
f 277//175 278//175 280//175 279//175
f 278//176 261//176 265//176 280//176
f 174//177 173//177 263//177 264//177
f 185//178 178//178 266//178 274//178
f 186//179 185//179 274//179 275//179
f 176//180 186//180 275//180 276//180
f 178//181 177//181 265//181 266//181
f 193//182 174//182 264//182 279//182
f 286//183 271//183 270//183 283//183
f 283//184 270//184 269//184 289//184
f 268//185 281//185 287//185 259//185
f 281//186 282//186 288//186 287//186
f 282//187 283//187 289//187 288//187
f 267//188 284//188 281//188 268//188
f 284//189 285//189 282//189 281//189
f 285//190 286//190 283//190 282//190
f 259//191 287//191 277//191 260//191
f 278//192 277//192 287//192 288//192
f 261//193 278//193 288//193 289//193
f 262//194 261//194 289//194 269//194
f 271//195 267//195 179//195 169//195
